<?xml version="1.0" encoding="UTF-8"?>
<svg id="Camada_1" xmlns="http://www.w3.org/2000/svg" version="1.1" viewBox="0 0 2922.76 3085.23">
  <!-- Generator: Adobe Illustrator 30.1.0, SVG Export Plug-In . SVG Version: 2.1.1 Build 136)  -->
  <defs>
    <style>
      .st0 {
        fill: #0f1012;
      }

      .st1 {
        fill: #fdfdfd;
      }
    </style>
  </defs>
  <path class="st1" d="M332.86,2771.83c8.9,6.42-1.45,17.71-9.11,18.38-8.72.77-21.36-8.03-15.7-19.01,4.28-3.15,18.32-4.04,24.81.63Z"/>
  <path class="st1" d="M324.58,2671.43c-11.03-.16-19.43-.09-18.06-9.5.77-5.28,5.94-12.29,15.17-11.63,6.96.5,11.07,4.85,13.13,8.08,5.08,7.95,2.32,13.23-10.24,13.05Z"/>
  <circle class="st1" cx="321.59" cy="2440.27" r="13.61"/>
  <circle class="st1" cx="321.7" cy="2720.25" r="13.48"/>
  <path class="st0" d="M1743.17,2437.3c-165.49,113.68-377.9,105.92-534.09-15.57-105.07-81.73-168.5-203.93-173.45-332.71-5.25-136.65,48.94-265.84,154.96-357.54-2.72-69.31,8.62-133.98,30.86-200.14,13.19-39.22,11.74-78.97-14.78-111.47-58.74-72-92.7-154.79-110.99-250.41-39.05,24.38-153.9,101.04-163.75,131.9-21.17,66.33-71.87,100.42-136.47,111.07-91.89,15.14-155.63-39.83-227.51-83.6-35.67-21.72-103.76-12.19-103.48-90.51.12-33.1-21.44-75-43.38-105.34-57.28-79.21-84.05-172.49-68.1-267.45,27.28-162.4,173.63-266.46,335.93-237.5,105,18.74,151.31,61.66,287.58,68.64,77.24,3.95,132.75-26.14,196.26-64.66,188.32-114.21,437.4-114.16,626.23-1.02,60.34,36.15,111.32,66.57,184.39,65.41,137.28-2.17,183.7-45.32,293.92-67.5,171.4-34.49,325.63,80.05,345.37,253.73,10.41,91.62-18.73,179.13-73.93,254.85-20.39,27.97-40.22,68.83-39.78,98.53,1.17,78.84-65.31,69.93-102.71,92.28-72.83,43.53-136.75,99.62-230.38,83.74-65.93-11.18-112.81-47.01-136.33-112.81-11.24-31.45-125.59-107.89-162.76-129.65-16.63,96.93-53.18,179.48-111.45,252.06-26.49,32.99-26.16,72.84-12.85,112.07,22.01,64.85,33.24,128.32,29.71,196.51,107.66,93.88,164,226.68,155.18,368.51-8.24,132.54-78.01,258.75-194.2,338.57ZM1794.38,774.8c44-8.95,83.26-18.62,125.05-36.57-35.75-13.35-70.98-19.21-102.27-41.18-188.44-132.31-450.91-140.16-640.3-12.69-38.2,25.71-75.84,40.88-122.44,53.12,44.75,20.22,85.04,29.29,130.97,38.51,201.77,40.5,407.24,39.83,608.98-1.2ZM1641.9,1038.1c15.57-77.31,66.96-133.22,141.69-159.93,139.73-49.93,234.77-17.66,315.58-48.28l183.73-69.62c52.52-19.9,109.88-8.71,153.27,24.54,41.13,31.51,63.51,83.9,60.96,139.35-4.33,94.46-82.33,161.41-176.42,151.74-11.55-1.19-26.6-1.04-29.92,14.34,46.07,5.07,86.29,21.02,114.93,55.35,29.37,35.21,32.86,81.27,19.7,128.76,59.59-9.54,15.94-67.16,80.23-155.75,76.16-104.95,103.75-231.52,29.19-344.62-74.02-112.28-212.35-127.03-327.49-76.05-62.09,27.49-129.28,28.49-190.42,49.8-59.95,20.89-110.77,49.59-174.28,64.06-236.26,53.83-478.11,53.5-714.46-.44-63.53-14.5-114.19-44.53-173.89-64.29-61.51-20.36-127.59-21.92-189.29-49.49-118.78-53.07-262.94-33.18-334.02,88.27-40.67,69.5-46.29,151.26-20.01,227.06,37.5,108.14,87.06,110.68,99.49,219.43,2.23,19.49,12.59,39.82,36.52,42.32-11.69-47.92-9.18-93.79,21.36-129.95,29.29-34.69,70.08-49.29,114.74-54.72-3.12-13.52-16.81-15.53-27.74-14.26-99.91,11.61-181.08-62.13-179.28-162.4.96-53.26,24.23-101.42,63.18-130.06,43.29-31.83,96.81-39.56,149.08-23.44,61.53,18.98,118.96,45.48,179.38,67.87,94.2,34.91,184.77-.9,327.62,52.8,72.95,27.43,121.57,83.55,136.46,159.27,22.3,113.4-5.02,197.27,84.15,296.93,45.61,50.97,58.61,116.47,38.95,182.08-10.03,33.47-16.62,67.14-10.11,102.68l83.3-.76c7.26-34.15.57-68.11-9.36-100.88-20.24-66.74-6.73-132.67,39.58-184.5,88.28-98.78,60.57-182.97,83.58-297.23ZM874.29,1155.74c81.93-23.18,145.24-74.96,182.95-146.43-30.02-53.58-76.57-90.53-133.12-111.82l-234.39-88.28c-31.94-12.03-67.71-15.22-98.42-2.62-40.76,16.72-63.78,56.73-68.09,95.22-4.74,42.25,11.58,82.61,45.77,108.39,64.94,48.98,138-23.23,164.4,81.92,54.24,6.81,97.45,28.19,140.9,63.61ZM2100.11,1155.56c43.13-37.7,87.67-55.34,139.66-64.5,5.74-38.46,36.72-66.39,75.99-61.16,71.84,9.57,132.58-36.99,134.26-111.6.9-40.08-17.35-78.36-48.32-100.22-29.96-21.14-71.73-25.94-108.93-11.96l-245.93,92.43c-55.69,20.93-100.66,57.98-131.04,110.54,38.15,72.67,102.74,125.1,184.31,146.47ZM1398.64,1627.97c-5.82-47.51.41-84.14,12.65-122.55,39.59-147.03-98.81-130.58-112.57-336.91-2.61-39.12-3.46-76.8-11.03-115.34-21.83-128.72-158.19-155.46-268.54-157.75,96.82,76.69,106.67,156.08,124.28,269.96,12.69,82.08,45.65,155.49,96.23,220.59,84.87,102.33-5.15,184.17-1.85,307.96,51.55-31.85,100.95-51.81,160.83-65.96ZM1734.87,1690.47c1.34-63.38-18.65-106.52-28.9-155.66-18.95-52.54-7.88-104.63,26.41-147.51,159.57-199.55,45.87-345.48,217.49-489.89-119.75-.21-249.95,34.86-266.75,167.31-14.38,113.44.58,202.46-89.63,301.27-34.83,38.15-46.46,86.74-31.78,137.24,12.87,40.3,20.37,79.93,13.18,125.49,58.91,9.96,108,36.7,159.98,61.74ZM927.81,1232.75c50.81-42.54,104.36-76.93,159.27-114.35.35-16.87-1.26-32.77-10.35-49.98-44.78,59.22-99.29,101.41-167.7,125.39,3.51,14.65,7.81,25.3,18.78,38.94ZM2045.13,1232.45c9.96-12.03,16.06-22.88,17.46-39.37-66.95-24.37-121.13-64.87-165.3-124.04-8.93,12.35-14.89,36.6-9.09,49.28,52.92,39.25,107.17,71.34,156.93,114.13ZM822.62,1356.65c30.4-9.72,50.19-33.52,56.85-53.53,9.33-28.03,4.34-55.24-11.45-79.26-46.09-70.15-138.1-103.75-218.41-78.92-27.77,8.59-48.6,29.67-56.89,50.08-10.92,26.89-7.45,55.56,8.21,80.57,44.98,71.83,138.54,107.64,221.68,81.06ZM2372.17,1276.03c17.47-27.96,19.12-57.99,5.74-86.13-36.25-76.24-200.34-74.49-271.62,32.05-17.11,25.57-22.01,55.13-11.48,83.35,8.31,22.26,30.24,43.72,59.44,52.34,80.13,23.67,172.5-8.91,217.92-81.61ZM1889.85,2068.84c0-222.5-180.37-402.86-402.86-402.86s-402.86,180.37-402.86,402.86,180.37,402.86,402.86,402.86,402.86-180.37,402.86-402.86Z"/>
  <path class="st1" d="M927.81,1232.75c-10.96-13.65-15.26-24.3-18.78-38.94,68.4-23.98,122.91-66.17,167.7-125.39,9.09,17.22,10.7,33.11,10.35,49.98-54.91,37.42-108.46,71.8-159.27,114.35Z"/>
  <path class="st0" d="M1851.29,2068.84c0,201.27-163.16,364.42-364.42,364.42s-364.42-163.16-364.42-364.42,163.16-364.42,364.42-364.42,364.42,163.16,364.42,364.42ZM1623.97,2353.76c-11.52-22.47-22.05-32.34-26.95-49.86-3.61-12.9,2.49-25.74,13.59-28.62,32.57-8.44,39.26,44.41,58.15,54.21,32.25-24.58,59.66-49.4,79.86-82.19-22.59-19.97-69.77-26.28-53.52-58.95,5.39-10.83,19.93-14.6,31.83-7.99l45.85,25.48c18.85-34.54,28.9-72.36,31.4-112.28-20.69-2.93-36.59-.08-54.54-1.42-16.49-1.23-23.05-14.08-20.98-27.81,4.71-31.23,57.38-10.96,75.66-21.88-4.39-40.68-12.73-77.19-31.5-109.23-21.62,7.72-67.33,49.09-79.21,13.29-10.03-30.21,32.24-34.89,54.98-55.46-19.6-32.93-47.07-58.49-79.48-82.32-19.91,9.26-27.67,71.22-62.21,53.94-29.7-14.86,7.52-55.18,17.33-78.64-34.64-18.82-72.68-28.75-112.67-31.29l-2.67,58.17c-.66,14.43-13.98,19.61-25.65,18.07-32.16-4.25-12.33-55.83-22-76.79-41.05,4.08-77.53,13.04-110.9,31.87l25.48,47.96c5.89,11.09,1.38,25.25-7.41,29.93-34.56,18.37-41.25-36.32-62.6-53.76-33.03,23.46-60.31,50.31-80.81,82.35,19.04,19.24,69.37,26.97,53.97,58.67-5.15,10.61-18.3,15.69-29.74,9.64l-49.12-25.98c-17.41,34.73-27.33,69.82-30.2,110.35,19.36,5.57,37.09.71,56.29,3.41,15.79,2.21,20.78,14.6,19.09,27.59-3.81,29.19-51.7,13.54-75.53,19.3,2.13,39.04,12.51,75.91,30.28,112.11,20.92-6.63,33.38-22.36,52.75-27.05,13-3.15,25.08,2.95,28.12,14.09,8.26,30.2-33.87,34.88-55.82,55.25,21.25,31.57,47.98,58.14,80.96,81.84,18.48-14.44,29.68-69.9,62.33-52.33,30.21,16.26-17.3,63.06-16.45,78.53,36.94,16.55,72.91,27.62,110.94,28.98,5.28-26.6-10.58-77.24,24.54-75.46,35.68,1.81,17.04,46.29,24.17,76.05,39.96-3.89,77.89-12.47,112.37-31.8Z"/>
  <path class="st0" d="M1633.32,2091.87l-148.2.27c-10.65.02-20.57-8.88-20.6-20.54l-.5-174.68c-.04-15.41,11.23-24.03,23.73-24.02,11.73.02,22.07,10,22.2,24.49l1.35,147.88,122.33.7c16.03.09,24.29,9.77,24.01,23.24-.25,12.34-8.94,22.62-24.34,22.65Z"/>
</svg>