<svg width="80" height="80" viewBox="0 0 80 80" fill="none" xmlns="http://www.w3.org/2000/svg">
<g clip-path="url(#clip0_760_296)">
<path d="M-9.76566e-05 27.8126V20.1563C0.568652 19.5563 1.10615 19.1751 2.03115 19.1751L6.35615 19.1938C6.54365 18.0501 6.03115 16.7626 7.34365 16.1626C7.9124 15.9001 8.6374 15.9813 9.15615 16.5001L15.4624 22.8001C16.1437 23.4813 16.1562 24.5063 15.4687 25.1876L9.08115 31.5626C8.59365 32.0501 7.86865 32.0813 7.3124 31.8313C6.0374 31.2501 6.5374 29.8563 6.3499 28.8001L2.1874 28.8251C1.1999 28.8251 0.568652 28.5126 -0.00634766 27.8126H-9.76566e-05ZM7.7499 25.5938C8.56865 25.5938 9.1374 25.9063 9.5124 26.6188L12.1062 24.0126L9.50615 21.3813C9.1624 21.9938 8.66865 22.3876 7.96865 22.3938L3.2124 22.4251L3.2249 25.5876H7.7374L7.7499 25.5938Z" fill="#464548"/>
<path d="M80 20.3438V27.7751C79.4813 28.4501 78.9 28.8251 77.9625 28.8251L73.65 28.8063C73.4438 29.8563 73.9688 31.2376 72.6875 31.8313C72.0875 32.1126 71.3563 32.0188 70.8313 31.4938L64.5313 25.1876C63.85 24.5063 63.8563 23.4813 64.5375 22.8001L70.8438 16.5001C71.3563 15.9876 72.075 15.8938 72.6563 16.1626C73.9625 16.7563 73.4688 18.0438 73.6375 19.1938L78.2875 19.2063C79.1375 19.2063 79.6125 19.7188 80.0063 20.3501L80 20.3438ZM76.7938 25.5688L76.775 22.4313L71.8688 22.3813C71.2313 22.3751 70.8 21.9251 70.4875 21.3938L67.8875 23.9751L70.475 26.6251C70.825 26.0563 71.2438 25.6376 71.8813 25.6313L76.7938 25.5751V25.5688Z" fill="#464548"/>
<path d="M67.6562 0C68.1687 0.34375 68.6437 0.7 68.7437 1.2C68.9 1.975 68.5875 2.45 68.1187 2.95625C66.9875 4.175 66.2562 5.625 65.5562 7.14375C64.5062 9.4125 63.9125 11.75 63.4062 14.2125C62.6625 17.8375 62.525 21.4062 62.3875 25.0875C62.2375 29.0688 63.2812 32.7125 65.6125 35.95C69.7125 41.6437 73.3437 47.4188 73.5562 54.6938C73.7875 62.7812 72.6562 70.6875 70.4687 78.425C70.2437 79.225 69.8937 79.675 69.2062 80H10.6562C10.4 79.6562 9.88124 79.5375 9.72499 79.0188C7.38124 71.1125 6.21874 62.9875 6.44374 54.6938C6.64374 47.3813 10.2625 41.6562 14.3875 35.95C16.7187 32.7188 17.7625 29.0688 17.6125 25.0875C17.475 21.3625 17.3375 17.7563 16.5687 14.0813C16.0562 11.625 15.4562 9.29375 14.3937 7.0375C13.6875 5.53125 12.9687 4.075 11.8062 2.88125C11.1312 2.19375 10.9562 1.18125 11.7062 0.4625C11.875 0.3 12.1125 0.2 12.1875 0L67.6562 0ZM48.2875 41.5688C50.1812 40.5063 51.9375 39.375 53.9312 38.4938C56.4312 37.3875 58.8875 36.5625 61.675 35.7375C59.85 32.3312 58.9875 28.6938 59.2312 24.8375C59.325 17.4313 60.2375 9.91875 63.8937 3.2H16.1C17.85 6.45625 18.9437 9.65625 19.6437 13.1562C20.4375 17.0938 20.7375 20.9563 20.7687 24.9938C20.9875 28.7938 20.125 32.375 18.3187 35.7375C21.0687 36.5438 23.4875 37.3625 25.95 38.4437C28.0187 39.35 29.8437 40.5187 31.8 41.625C38.8187 45.9125 41.2875 45.825 48.2812 41.5688H48.2875ZM69.8125 49.8875C68.9062 46.0187 67.1812 42.85 64.775 40.1L63.5562 38.5312C60.7625 39.3063 58.0937 40.1875 55.4187 41.3438C51.8937 42.8688 48.375 45.575 44.7062 47.0625C41.6562 48.2938 38.3562 48.3 35.3062 47.0625C31.6 45.5625 28.0875 42.8688 24.5875 41.35C21.9187 40.1938 19.2562 39.3063 16.4625 38.5312L15.175 40.1813C12.9187 43.075 11.0437 46.1875 10.1937 49.9188C13.4812 50.0438 16.5312 50.4437 19.6812 51.2687C24.9437 53.2313 29.6187 56.1938 33.7062 60.025C35.1562 61.225 36.4875 62.3875 38.0625 63.35C39.35 64.1438 40.6687 64.1438 41.9562 63.35C43.525 62.3875 44.8625 61.225 46.3125 60.025C50.3687 56.2188 55.0062 53.2812 60.225 51.3187C63.3875 50.425 66.4875 50.075 69.8187 49.8812L69.8125 49.8875ZM38.3812 66.925C35.7437 65.8563 33.6437 64.3937 31.675 62.5375C27.8875 58.9562 23.5562 56.1937 18.675 54.3312C15.6875 53.6 12.8 53.1937 9.72499 53.1437L9.60624 56.2625C9.34374 63.2 10.5625 70.0563 12.4 76.8188L38.4 76.8063L38.3812 66.9312V66.925ZM41.625 76.8063H67.6062C69.675 69.0563 70.6687 61.1438 70.3 53.1125C67.1625 53.1688 64.2062 53.5812 61.2187 54.3563C56.3687 56.2375 52.0875 58.9688 48.3187 62.5312C46.3375 64.425 44.1687 65.8812 41.6 66.9375L41.6187 76.8063H41.625Z" fill="#464548"/>
<path d="M39.9249 30.4375C42.0499 30.2813 42.1249 36.6188 40.0499 36.775C37.9749 36.9313 37.8624 30.5875 39.9249 30.4375Z" fill="#464548"/>
</g>
<defs>
<clipPath id="clip0_760_296">
<rect width="80" height="80" fill="white"/>
</clipPath>
</defs>
</svg>
